<svg width="14" height="14" viewBox="0 0 14 14" fill="none" xmlns="http://www.w3.org/2000/svg">
<path d="M7.00163 0.0766602C10.6836 0.0766602 13.6683 3.06133 13.6683 6.74333C13.6683 10.4253 10.6836 13.41 7.00163 13.41C3.31963 13.41 0.334961 10.4253 0.334961 6.74333C0.334961 3.06133 3.31963 0.0766602 7.00163 0.0766602ZM7.00163 2.74333C6.82482 2.74333 6.65525 2.81356 6.53022 2.93859C6.4052 3.06361 6.33496 3.23318 6.33496 3.40999V6.74333C6.335 6.92012 6.40526 7.08966 6.53029 7.21466L8.53029 9.21466C8.65603 9.3361 8.82443 9.40329 8.99923 9.40178C9.17403 9.40026 9.34123 9.33014 9.46484 9.20654C9.58844 9.08293 9.65856 8.91572 9.66008 8.74093C9.6616 8.56613 9.5944 8.39773 9.47296 8.27199L7.66829 6.46733V3.40999C7.66829 3.23318 7.59806 3.06361 7.47303 2.93859C7.34801 2.81356 7.17844 2.74333 7.00163 2.74333Z" fill="white"/>
</svg>
