<svg width="24" height="30" viewBox="0 0 24 30" fill="none" xmlns="http://www.w3.org/2000/svg">
<path d="M9.48667 28.0813C10.2947 28.748 11.1373 29.3573 12 29.952C12.8645 29.3652 13.7031 28.741 14.5133 28.0813C15.864 26.9723 17.1351 25.7698 18.3173 24.4826C21.0427 21.5026 24 17.1826 24 12.3333C24 10.7575 23.6896 9.19702 23.0866 7.74111C22.4835 6.2852 21.5996 4.96233 20.4853 3.84803C19.371 2.73373 18.0481 1.84982 16.5922 1.24676C15.1363 0.643702 13.5759 0.333313 12 0.333313C10.4241 0.333313 8.86371 0.643702 7.4078 1.24676C5.95189 1.84982 4.62902 2.73373 3.51472 3.84803C2.40042 4.96233 1.5165 6.2852 0.913445 7.74111C0.310389 9.19702 -2.34822e-08 10.7575 0 12.3333C0 17.1826 2.95733 21.5013 5.68267 24.4826C6.86483 25.7702 8.13595 26.9718 9.48667 28.0813ZM12 16.6666C10.8507 16.6666 9.74853 16.2101 8.93587 15.3974C8.12321 14.5848 7.66667 13.4826 7.66667 12.3333C7.66667 11.184 8.12321 10.0818 8.93587 9.26918C9.74853 8.45653 10.8507 7.99998 12 7.99998C13.1493 7.99998 14.2515 8.45653 15.0641 9.26918C15.8768 10.0818 16.3333 11.184 16.3333 12.3333C16.3333 13.4826 15.8768 14.5848 15.0641 15.3974C14.2515 16.2101 13.1493 16.6666 12 16.6666Z" fill="#F48712"/>
</svg>
