<svg width="10" height="14" viewBox="0 0 10 14" fill="none" xmlns="http://www.w3.org/2000/svg">
<path d="M4.99967 6.40999C4.55765 6.40999 4.13372 6.2344 3.82116 5.92184C3.5086 5.60928 3.33301 5.18535 3.33301 4.74333C3.33301 4.3013 3.5086 3.87738 3.82116 3.56482C4.13372 3.25225 4.55765 3.07666 4.99967 3.07666C5.4417 3.07666 5.86562 3.25225 6.17819 3.56482C6.49075 3.87738 6.66634 4.3013 6.66634 4.74333C6.66634 4.9622 6.62323 5.17892 6.53947 5.38113C6.45572 5.58334 6.33295 5.76707 6.17819 5.92184C6.02342 6.0766 5.83969 6.19937 5.63748 6.28313C5.43527 6.36688 5.21854 6.40999 4.99967 6.40999ZM4.99967 0.0766602C3.762 0.0766602 2.57501 0.568325 1.69984 1.4435C0.824673 2.31866 0.333008 3.50565 0.333008 4.74333C0.333008 8.24333 4.99967 13.41 4.99967 13.41C4.99967 13.41 9.66634 8.24333 9.66634 4.74333C9.66634 3.50565 9.17467 2.31866 8.29951 1.4435C7.42434 0.568325 6.23735 0.0766602 4.99967 0.0766602Z" fill="white"/>
</svg>
