<svg width="30" height="20" viewBox="0 0 30 20" fill="none" xmlns="http://www.w3.org/2000/svg">
<path d="M20.333 8.66669C22.5463 8.66669 24.3197 6.88002 24.3197 4.66669C24.3197 2.45335 22.5463 0.666687 20.333 0.666687C18.1197 0.666687 16.333 2.45335 16.333 4.66669C16.333 6.88002 18.1197 8.66669 20.333 8.66669ZM9.66634 8.66669C11.8797 8.66669 13.653 6.88002 13.653 4.66669C13.653 2.45335 11.8797 0.666687 9.66634 0.666687C7.45301 0.666687 5.66634 2.45335 5.66634 4.66669C5.66634 6.88002 7.45301 8.66669 9.66634 8.66669ZM9.66634 11.3334C6.55967 11.3334 0.333008 12.8934 0.333008 16V19.3334H18.9997V16C18.9997 12.8934 12.773 11.3334 9.66634 11.3334ZM20.333 11.3334C19.9463 11.3334 19.5063 11.36 19.0397 11.4C20.5863 12.52 21.6663 14.0267 21.6663 16V19.3334H29.6663V16C29.6663 12.8934 23.4397 11.3334 20.333 11.3334Z" fill="#F48712"/>
</svg>
