<svg width="28" height="26" viewBox="0 0 28 26" fill="none" xmlns="http://www.w3.org/2000/svg">
<path d="M22.0003 26V6.00002H24.667C25.4003 6.00002 26.0283 6.26135 26.551 6.78402C27.0737 7.30669 27.3345 7.93424 27.3337 8.66669V23.3334C27.3337 24.0667 27.0728 24.6947 26.551 25.2174C26.0292 25.74 25.4012 26.0009 24.667 26H22.0003ZM11.3337 6.00002H16.667V3.33335H11.3337V6.00002ZM8.66699 26V3.33335C8.66699 2.60002 8.92833 1.97246 9.45099 1.45069C9.97366 0.928909 10.6012 0.667576 11.3337 0.666687H16.667C17.4003 0.666687 18.0283 0.92802 18.551 1.45069C19.0737 1.97335 19.3345 2.60091 19.3337 3.33335V26H8.66699ZM3.33366 26C2.60033 26 1.97277 25.7391 1.45099 25.2174C0.929214 24.6956 0.667881 24.0676 0.666992 23.3334V8.66669C0.666992 7.93335 0.928326 7.3058 1.45099 6.78402C1.97366 6.26224 2.60121 6.00091 3.33366 6.00002H6.00033V26H3.33366Z" fill="#F48712"/>
</svg>
