<svg width="28" height="28" viewBox="0 0 28 28" fill="none" xmlns="http://www.w3.org/2000/svg">
<path d="M14.0003 0.666687C6.64833 0.666687 0.666992 6.64802 0.666992 14C0.666992 21.352 6.64833 27.3334 14.0003 27.3334C21.3523 27.3334 27.3337 21.352 27.3337 14C27.3337 6.64802 21.3523 0.666687 14.0003 0.666687ZM3.33366 14C3.33366 12.8014 3.54166 11.6507 3.90833 10.5747L6.00033 12.6667L8.66699 15.3334V18L11.3337 20.6667L12.667 22V24.5747C7.41499 23.9147 3.33366 19.4294 3.33366 14ZM22.4403 20.4974C21.5697 19.796 20.2497 19.3334 19.3337 19.3334V18C19.3337 17.2928 19.0527 16.6145 18.5526 16.1144C18.0525 15.6143 17.3742 15.3334 16.667 15.3334H11.3337V11.3334C12.0409 11.3334 12.7192 11.0524 13.2193 10.5523C13.7194 10.0522 14.0003 9.37393 14.0003 8.66669V7.33335H15.3337C16.0409 7.33335 16.7192 7.0524 17.2193 6.5523C17.7194 6.05221 18.0003 5.37393 18.0003 4.66669V4.11869C21.9043 5.70402 24.667 9.53335 24.667 14C24.6664 16.3529 23.8831 18.6387 22.4403 20.4974Z" fill="#F48712"/>
</svg>
